<?xml version="1.0" standalone="no"?>
<!DOCTYPE svg PUBLIC "-//W3C//DTD SVG 20010904//EN"
 "http://www.w3.org/TR/2001/REC-SVG-20010904/DTD/svg10.dtd">
<svg version="1.0" xmlns="http://www.w3.org/2000/svg"
 width="301.000000pt" height="264.000000pt" viewBox="0 0 301.000000 264.000000"
 preserveAspectRatio="xMidYMid meet">

<g transform="translate(0.000000,264.000000) scale(0.100000,-0.100000)"
fill="#093f9f" stroke="none">
<path d="M510 2545 c0 -3 15 -29 34 -58 91 -141 126 -198 168 -267 25 -41 101
-163 168 -270 68 -107 140 -222 160 -255 l37 -60 774 -2 c426 -2 779 -3 784
-3 11 0 65 -81 65 -99 0 -8 -216 -11 -842 -11 l-843 1 -29 47 c-16 26 -39 63
-51 82 -12 19 -53 85 -91 147 -67 109 -91 138 -60 71 8 -18 52 -116 96 -218
45 -102 83 -186 84 -187 2 -2 351 -3 776 -3 l774 -1 18 -27 c10 -15 18 -30 18
-34 0 -5 -367 -8 -815 -8 -645 0 -815 3 -815 13 0 6 -23 62 -50 122 -27 61
-49 101 -49 90 0 -11 12 -78 28 -150 l28 -130 896 -3 c734 -2 897 0 897 11 0
7 -13 34 -30 60 -16 25 -25 49 -21 52 5 2 52 4 105 3 53 0 99 1 101 4 5 5 -56
120 -77 146 -17 19 -6 23 71 25 40 0 71 5 71 11 0 6 -70 133 -156 283 l-157
273 -318 0 c-177 0 -319 4 -319 9 0 5 7 26 16 47 16 38 16 38 -12 62 -16 13
-45 34 -66 47 -20 13 -39 29 -43 35 -4 7 92 10 304 10 171 0 311 3 311 7 0 4
-17 35 -37 70 l-38 63 -932 0 c-513 0 -933 -2 -933 -5z"/>
<path d="M366 2356 c-27 -56 -117 -238 -199 -405 -82 -166 -145 -306 -140
-311 8 -7 96 -31 99 -27 0 1 38 108 84 237 45 129 112 316 147 414 35 99 62
183 61 186 -2 4 -25 -38 -52 -94z"/>
<path d="M493 2093 c-19 -4 -23 -11 -23 -43 0 -21 -3 -45 -6 -54 -5 -13 1 -16
25 -16 l31 0 0 60 c0 33 -1 59 -2 59 -2 -1 -13 -4 -25 -6z"/>
<path d="M570 2036 c0 -49 2 -54 25 -58 33 -7 35 -3 35 59 0 52 0 53 -30 53
-30 0 -30 -1 -30 -54z"/>
<path d="M291 1888 c-19 -45 -42 -101 -52 -123 -44 -101 -89 -215 -89 -225 0
-6 10 -10 22 -8 19 3 30 30 90 213 37 116 66 214 65 218 -1 5 -18 -29 -36 -75z"/>
<path d="M470 1880 c0 -57 1 -60 25 -60 24 0 25 3 25 60 0 57 -1 60 -25 60
-24 0 -25 -3 -25 -60z"/>
<path d="M570 1880 c0 -61 0 -61 28 -58 26 3 27 5 27 58 0 53 -1 55 -27 58
-28 3 -28 3 -28 -58z"/>
<path d="M332 1782 c-18 -64 -43 -153 -56 -197 -39 -134 -39 -135 -17 -135 23
0 22 -4 61 185 44 214 52 257 48 260 -2 2 -18 -49 -36 -113z"/>
<path d="M322 823 l3 -228 35 0 35 0 3 98 3 97 99 0 99 0 3 -97 3 -98 35 1 35
0 3 227 2 227 -40 0 -40 0 0 -95 0 -95 -100 0 -100 0 0 95 0 95 -40 0 -40 0 2
-227z"/>
<path d="M2540 972 c0 -43 -3 -82 -6 -85 -4 -3 -16 0 -28 8 -11 8 -42 15 -67
15 -88 0 -136 -69 -126 -181 10 -112 98 -170 188 -123 28 14 32 14 43 -1 7
-10 22 -15 37 -13 l24 3 3 228 2 227 -35 0 -35 0 0 -78z m-25 -147 c54 -53 20
-165 -50 -165 -48 0 -76 27 -82 81 -4 38 -1 50 22 77 34 40 75 43 110 7z"/>
<path d="M864 908 c-23 -5 -52 -20 -65 -34 l-24 -25 25 -19 c23 -18 25 -18 48
1 47 36 122 17 122 -32 0 -17 -7 -19 -57 -19 -87 0 -128 -15 -143 -51 -19 -45
0 -101 43 -124 40 -21 108 -16 136 9 23 21 28 20 34 -4 4 -14 12 -19 29 -17
22 4 23 7 26 125 3 120 2 121 -25 152 -33 37 -87 50 -149 38z m106 -189 c0
-24 -22 -48 -55 -59 -30 -10 -40 -9 -61 4 -20 14 -22 20 -14 35 5 11 15 22 22
24 25 10 108 7 108 -4z"/>
<path d="M1138 755 c-2 -103 1 -156 8 -159 5 -2 21 -2 35 1 22 4 24 9 21 47
-5 61 15 157 37 180 12 11 32 19 51 18 24 0 34 5 42 24 6 13 16 23 20 22 5 -2
23 -35 39 -73 17 -39 34 -79 39 -90 5 -11 18 -42 30 -70 11 -27 26 -53 33 -57
23 -15 48 -8 57 17 5 14 19 45 30 70 22 49 90 215 90 221 0 2 -17 4 -38 4
l-38 0 -32 -92 c-18 -51 -37 -100 -42 -108 -10 -17 -7 -23 -55 110 l-30 85
-91 2 c-80 3 -93 0 -109 -17 -23 -26 -38 -26 -30 0 6 17 2 20 -29 20 l-35 0
-3 -155z"/>
<path d="M1753 889 c-38 -24 -41 -39 -13 -64 20 -18 21 -18 43 3 33 31 91 30
113 -3 23 -35 10 -45 -59 -45 -112 0 -164 -49 -132 -126 27 -64 119 -85 174
-38 l31 26 10 -27 c7 -20 16 -26 33 -23 20 3 22 9 25 78 5 110 -6 176 -33 207
-20 24 -31 28 -91 31 -57 2 -75 -1 -101 -19z m157 -165 c0 -34 -72 -80 -107
-67 -34 13 -41 34 -17 57 15 15 124 24 124 10z"/>
<path d="M2069 898 c-2 -27 -2 -97 0 -200 l1 -108 33 3 32 2 5 102 c4 89 8
105 27 125 15 15 34 22 57 21 27 -1 36 4 45 24 6 13 9 29 6 34 -11 17 -81 10
-109 -12 l-26 -20 0 20 c0 17 -6 21 -35 21 -21 0 -35 -5 -36 -12z"/>
<path d="M785 332 c-31 -6 -45 -22 -45 -49 0 -18 9 -28 33 -38 47 -19 63 -41
47 -60 -17 -20 -30 -19 -57 6 -21 21 -23 21 -29 4 -16 -40 77 -63 109 -27 30
33 21 58 -28 82 -25 12 -45 28 -45 35 0 19 30 27 47 14 9 -8 17 -9 24 -2 14
14 -29 40 -56 35z"/>
<path d="M1020 328 c-45 -16 -60 -38 -60 -85 0 -57 33 -93 84 -93 42 0 100 42
73 53 -8 3 -21 -1 -27 -9 -7 -8 -28 -14 -47 -14 -29 0 -36 5 -49 35 -13 31
-13 38 1 59 9 13 25 26 37 29 25 7 68 -8 68 -24 0 -8 4 -8 15 1 13 11 12 15
-8 30 -30 23 -58 29 -87 18z"/>
<path d="M1246 333 c-3 -3 -6 -46 -6 -95 0 -72 3 -88 15 -88 11 0 15 11 15 40
l0 40 45 0 45 0 0 -40 c0 -29 4 -40 15 -40 12 0 15 17 15 96 0 72 -3 95 -12
92 -7 -3 -14 -21 -16 -41 -3 -37 -4 -37 -48 -37 -44 0 -44 0 -44 34 0 34 -11
52 -24 39z"/>
<path d="M1562 325 c-37 -16 -52 -42 -52 -90 0 -67 67 -104 133 -74 26 12 47
47 47 80 0 17 -26 79 -33 79 -1 0 -16 4 -33 9 -21 6 -40 4 -62 -4z m61 -24
c30 -12 42 -54 26 -93 -6 -15 -14 -28 -18 -28 -3 0 -16 -3 -28 -6 -51 -14 -84
75 -43 116 23 23 29 24 63 11z"/>
<path d="M1842 325 c-89 -38 -61 -175 36 -175 55 0 92 35 92 88 0 71 -63 114
-128 87z m78 -35 c23 -23 26 -67 5 -94 -19 -25 -73 -26 -91 -1 -31 43 -2 115
46 115 11 0 29 -9 40 -20z"/>
<path d="M2090 246 l0 -96 55 0 c41 0 55 4 55 14 0 11 -9 13 -36 9 -48 -8 -55
6 -52 91 2 48 -1 71 -10 74 -9 3 -12 -20 -12 -92z"/>
</g>
</svg>
